<svg width="696" height="550" viewBox="0 0 696 550" fill="none" xmlns="http://www.w3.org/2000/svg">
<rect x="0.5" y="40.5" width="437.24" height="286.37" rx="23.5" fill="#1C0C3F" stroke="#A191FF"/>
<path d="M0.897949 86.6976H35.9212V326.472H24.8979C11.6431 326.472 0.897949 315.727 0.897949 302.472V86.6976Z" fill="#150733"/>
<path d="M24 40.5H414.24C427.218 40.5 437.74 51.0213 437.74 64V87.3951H0.5V64C0.5 51.0213 11.0213 40.5 24 40.5Z" fill="#1C0C3F" stroke="#A191FF"/>
<circle cx="44.9016" cy="64.2468" r="5.38819" fill="#F2C94C"/>
<circle cx="26.9409" cy="64.2471" r="5.38819" fill="#EB5757"/>
<circle cx="62.8623" cy="64.2468" r="5.38819" fill="#27AE60"/>
<path d="M17.2885 125.066V117.066L15.4805 117.706L15.0965 116.506L17.7525 115.098H19.0965V125.066H17.2885ZM14.8725 155.722C15.6405 154.975 16.3072 154.33 16.8725 153.786C17.4379 153.231 17.9072 152.741 18.2805 152.314C18.6539 151.877 18.9312 151.466 19.1125 151.082C19.2939 150.687 19.3845 150.271 19.3845 149.834C19.3845 148.917 18.9152 148.458 17.9765 148.458C17.6352 148.458 17.3259 148.517 17.0485 148.634C16.7712 148.751 16.5205 148.943 16.2965 149.21C16.2005 149.359 16.1365 149.471 16.1045 149.546C16.0832 149.621 16.0779 149.701 16.0885 149.786L15.9925 149.898L15.8805 149.818L14.6325 148.858C14.9952 148.25 15.4699 147.781 16.0565 147.45C16.6539 147.119 17.2992 146.954 17.9925 146.954C18.5685 146.954 19.0912 147.077 19.5605 147.322C20.0299 147.557 20.4032 147.887 20.6805 148.314C20.9579 148.741 21.0965 149.247 21.0965 149.834C21.0965 150.517 20.9365 151.151 20.6165 151.738C20.2965 152.314 19.8432 152.906 19.2565 153.514C18.6805 154.122 18.0085 154.815 17.2405 155.594H20.3925C20.5632 155.594 20.6859 155.583 20.7605 155.562C20.8459 155.541 20.9205 155.498 20.9845 155.434H21.1285V157.066H14.8725V155.722ZM17.7205 189.258C17.1339 189.258 16.5632 189.162 16.0085 188.97C15.4539 188.767 15.0059 188.463 14.6645 188.058L15.5765 186.73L15.6725 186.602L15.8005 186.682C15.8219 186.767 15.8432 186.853 15.8645 186.938C15.8965 187.023 15.9765 187.13 16.1045 187.258C16.2965 187.429 16.5205 187.567 16.7765 187.674C17.0325 187.77 17.3205 187.818 17.6405 187.818C18.1525 187.818 18.5419 187.674 18.8085 187.386C19.0859 187.087 19.2245 186.703 19.2245 186.234C19.2245 185.573 19.0005 185.114 18.5525 184.858C18.1152 184.602 17.4645 184.522 16.6005 184.618V183.21C17.2299 183.221 17.7152 183.162 18.0565 183.034C18.4085 182.895 18.6539 182.709 18.7925 182.474C18.9312 182.239 19.0005 181.989 19.0005 181.722C19.0005 181.327 18.8779 181.018 18.6325 180.794C18.3979 180.559 18.0779 180.442 17.6725 180.442C17.3525 180.442 17.0379 180.506 16.7285 180.634C16.4299 180.751 16.1632 180.943 15.9285 181.21L14.8885 180.154C15.2619 179.717 15.7045 179.407 16.2165 179.226C16.7285 179.045 17.2352 178.954 17.7365 178.954C18.3232 178.954 18.8405 179.066 19.2885 179.29C19.7472 179.514 20.1045 179.818 20.3605 180.202C20.6165 180.586 20.7445 181.029 20.7445 181.53C20.7445 182.085 20.5845 182.559 20.2645 182.954C19.9552 183.338 19.5979 183.61 19.1925 183.77C19.5019 183.877 19.7952 184.037 20.0725 184.25C20.3605 184.463 20.5899 184.741 20.7605 185.082C20.9419 185.423 21.0325 185.829 21.0325 186.298C21.0325 186.853 20.8992 187.354 20.6325 187.802C20.3659 188.239 19.9819 188.591 19.4805 188.858C18.9899 189.125 18.4032 189.258 17.7205 189.258ZM18.5045 221.066V218.698H14.6005V217.514L18.9205 211.098H20.2645V217.242H21.5765V218.714H20.2645V221.066H18.5045ZM16.4245 217.274H18.5525V213.946L16.4245 217.274ZM17.9925 253.258C17.2992 253.258 16.6699 253.125 16.1045 252.858C15.5499 252.591 15.1232 252.197 14.8245 251.674L16.0885 250.634L16.2165 250.538L16.2965 250.65C16.2965 250.735 16.3125 250.815 16.3445 250.89C16.3765 250.965 16.4459 251.071 16.5525 251.21C16.9259 251.594 17.4005 251.786 17.9765 251.786C18.4565 251.786 18.8512 251.61 19.1605 251.258C19.4699 250.895 19.6245 250.442 19.6245 249.898C19.6245 249.311 19.4752 248.837 19.1765 248.474C18.8779 248.101 18.4619 247.914 17.9285 247.914C17.2565 247.914 16.7179 248.175 16.3125 248.698L15.2085 248.41L15.5765 243.098H20.9045V244.554H17.0805L16.9365 246.81C17.1285 246.703 17.3525 246.618 17.6085 246.554C17.8752 246.49 18.1205 246.458 18.3445 246.458C19.2299 246.458 19.9499 246.746 20.5045 247.322C21.0592 247.887 21.3365 248.703 21.3365 249.77C21.3365 250.495 21.1925 251.119 20.9045 251.642C20.6165 252.154 20.2165 252.554 19.7045 252.842C19.2032 253.119 18.6325 253.258 17.9925 253.258Z" fill="#5E49FF"/>
<rect x="50.2898" y="116.047" width="143.685" height="10.7764" rx="5.38819" fill="#5E49FF"/>
<rect x="200.975" y="116.047" width="127.521" height="10.7764" rx="5.38819" fill="#5E49FF"/>
<rect x="50.2898" y="147.823" width="63.9848" height="10.7764" rx="5.38819" fill="#5E49FF"/>
<rect x="50.2898" y="211.376" width="63.9848" height="10.7764" rx="5.38819" fill="#25CBD3"/>
<rect x="50.2898" y="243.152" width="63.9848" height="10.7764" rx="5.38819" fill="#5E49FF"/>
<rect x="192.893" y="179.599" width="63.9848" height="10.7764" rx="5.38819" fill="#3BD42D"/>
<rect x="121.275" y="147.823" width="135.603" height="10.7764" rx="5.38819" fill="#25CBD3"/>
<rect x="50.2898" y="179.599" width="135.603" height="10.7764" rx="5.38819" fill="#5E49FF"/>
<rect x="121.275" y="211.376" width="135.603" height="10.7764" rx="5.38819" fill="#5E49FF"/>
<rect x="121.275" y="243.152" width="63.9848" height="10.7764" rx="5.38819" fill="#3BD42D"/>
<rect x="263.877" y="147.823" width="63.9848" height="10.7764" rx="5.38819" fill="#5E49FF"/>
<path d="M86.6189 58.4607H160.34C162.273 58.4607 163.84 60.0277 163.84 61.9607V87.0958H83.1189V61.9607C83.1189 60.0277 84.6859 58.4607 86.6189 58.4607Z" fill="#1C0C3F" stroke="#A191FF"/>
<path d="M109.247 78.043V76.975H110.615V73.531H109.319V72.463H111.983V76.975H113.231V78.043H109.247ZM111.239 71.539C110.999 71.539 110.795 71.459 110.627 71.299C110.467 71.139 110.387 70.947 110.387 70.723C110.387 70.491 110.467 70.299 110.627 70.147C110.787 69.987 110.991 69.907 111.239 69.907C111.463 69.907 111.659 69.987 111.827 70.147C112.003 70.307 112.091 70.499 112.091 70.723C112.091 70.947 112.003 71.139 111.827 71.299C111.659 71.459 111.463 71.539 111.239 71.539ZM115.019 78.043V72.463H116.375V73.231C116.575 72.959 116.807 72.743 117.071 72.583C117.335 72.415 117.639 72.331 117.983 72.331C118.303 72.331 118.599 72.411 118.871 72.571C119.151 72.723 119.375 72.971 119.543 73.315C119.711 73.659 119.795 74.111 119.795 74.671V78.043H118.439V74.695C118.439 74.239 118.367 73.907 118.223 73.699C118.079 73.483 117.879 73.375 117.623 73.375C117.423 73.375 117.227 73.431 117.035 73.543C116.843 73.647 116.683 73.799 116.555 73.999C116.435 74.199 116.375 74.439 116.375 74.719V78.043H115.019ZM123.191 78.175C122.775 78.175 122.391 78.067 122.039 77.851C121.695 77.635 121.415 77.307 121.199 76.867C120.983 76.427 120.875 75.879 120.875 75.223C120.875 74.575 120.979 74.039 121.187 73.615C121.395 73.183 121.675 72.859 122.027 72.643C122.379 72.427 122.771 72.319 123.203 72.319C123.483 72.319 123.743 72.371 123.983 72.475C124.223 72.579 124.411 72.747 124.547 72.979V69.991H125.999V70.099C125.951 70.147 125.919 70.203 125.903 70.267C125.895 70.323 125.891 70.415 125.891 70.543L125.879 77.299C125.879 77.427 125.887 77.551 125.903 77.671C125.919 77.791 125.955 77.915 126.011 78.043H124.679C124.615 77.915 124.579 77.815 124.571 77.743C124.563 77.663 124.559 77.559 124.559 77.431C124.407 77.687 124.211 77.875 123.971 77.995C123.731 78.115 123.471 78.175 123.191 78.175ZM123.419 77.083C124.155 77.083 124.523 76.467 124.523 75.235C124.523 73.995 124.143 73.375 123.383 73.375C122.999 73.375 122.707 73.539 122.507 73.867C122.307 74.195 122.207 74.639 122.207 75.199C122.207 75.791 122.323 76.255 122.555 76.591C122.795 76.919 123.083 77.083 123.419 77.083ZM129.851 78.175C129.315 78.175 128.835 78.063 128.411 77.839C127.995 77.615 127.667 77.287 127.427 76.855C127.187 76.423 127.067 75.903 127.067 75.295C127.067 74.671 127.183 74.139 127.415 73.699C127.655 73.259 127.971 72.923 128.363 72.691C128.763 72.451 129.207 72.331 129.695 72.331C130.127 72.331 130.523 72.431 130.883 72.631C131.251 72.831 131.543 73.135 131.759 73.543C131.983 73.943 132.095 74.443 132.095 75.043C132.095 75.123 132.091 75.219 132.083 75.331C132.083 75.443 132.079 75.539 132.071 75.619H128.375C128.391 75.971 128.475 76.259 128.627 76.483C128.779 76.699 128.967 76.859 129.191 76.963C129.415 77.067 129.655 77.119 129.911 77.119C130.159 77.119 130.395 77.079 130.619 76.999C130.843 76.919 131.051 76.783 131.243 76.591L131.939 77.263C131.667 77.583 131.355 77.815 131.003 77.959C130.651 78.103 130.267 78.175 129.851 78.175ZM128.399 74.599H130.775C130.775 74.207 130.675 73.907 130.475 73.699C130.275 73.491 129.995 73.387 129.635 73.387C129.323 73.387 129.051 73.487 128.819 73.687C128.587 73.879 128.447 74.183 128.399 74.599ZM133.055 78.043L134.987 75.247L133.079 72.463H134.507L135.707 74.191L136.823 72.463H138.191L136.427 75.199L138.431 78.043H136.967L135.707 76.267L134.507 78.043H133.055Z" fill="#25CBD3"/>
<rect x="258.26" y="263.13" width="437.24" height="286.37" rx="23.5" fill="#1C0C3F" stroke="#A191FF"/>
<path d="M281.76 263.13H672C684.979 263.13 695.5 273.651 695.5 286.63V310.025H258.26V286.63C258.26 273.651 268.782 263.13 281.76 263.13Z" fill="#1C0C3F" stroke="#A191FF"/>
<circle cx="302.662" cy="286.876" r="5.38819" fill="#F2C94C"/>
<circle cx="284.701" cy="286.876" r="5.38819" fill="#EB5757"/>
<circle cx="320.623" cy="286.876" r="5.38819" fill="#27AE60"/>
<path d="M344.379 281.09H418.1C420.033 281.09 421.6 282.657 421.6 284.59V309.725H340.879V284.59C340.879 282.657 342.446 281.09 344.379 281.09Z" fill="#1C0C3F" stroke="#A191FF"/>
<path d="M369.396 303.004L369.384 295.408H370.728V296.188C370.904 295.876 371.128 295.648 371.4 295.504C371.672 295.36 371.972 295.288 372.3 295.288C372.708 295.288 373.076 295.4 373.404 295.624C373.74 295.84 374.008 296.168 374.208 296.608C374.408 297.04 374.508 297.58 374.508 298.228C374.508 298.884 374.404 299.428 374.196 299.86C373.988 300.292 373.712 300.616 373.368 300.832C373.032 301.04 372.668 301.144 372.276 301.144C371.98 301.144 371.696 301.092 371.424 300.988C371.152 300.884 370.936 300.728 370.776 300.52V303.004H369.396ZM371.904 300.088C372.136 300.088 372.348 300.028 372.54 299.908C372.732 299.788 372.884 299.588 372.996 299.308C373.108 299.028 373.164 298.644 373.164 298.156C373.164 297.604 373.056 297.168 372.84 296.848C372.632 296.528 372.344 296.364 371.976 296.356C371.592 296.348 371.292 296.5 371.076 296.812C370.868 297.116 370.764 297.616 370.764 298.312C370.78 299.496 371.16 300.088 371.904 300.088ZM377.316 301.144C376.7 301.144 376.22 301 375.876 300.712C375.54 300.424 375.372 300.044 375.372 299.572C375.372 298.98 375.636 298.492 376.164 298.108C376.7 297.716 377.476 297.52 378.492 297.52C378.548 297.52 378.62 297.52 378.708 297.52C378.804 297.52 378.904 297.524 379.008 297.532C378.952 297.068 378.82 296.756 378.612 296.596C378.404 296.428 378.124 296.344 377.772 296.344C377.516 296.344 377.276 296.388 377.052 296.476C376.828 296.556 376.604 296.708 376.38 296.932L375.636 296.116C375.956 295.82 376.304 295.608 376.68 295.48C377.056 295.352 377.44 295.288 377.832 295.288C378.296 295.288 378.72 295.364 379.104 295.516C379.488 295.66 379.792 295.916 380.016 296.284C380.24 296.644 380.352 297.144 380.352 297.784V301H378.948V300.4C378.74 300.68 378.5 300.876 378.228 300.988C377.956 301.092 377.652 301.144 377.316 301.144ZM376.728 299.404C376.728 299.66 376.808 299.84 376.968 299.944C377.136 300.04 377.34 300.088 377.58 300.088C378.012 300.088 378.348 299.96 378.588 299.704C378.828 299.44 378.972 299.028 379.02 298.468C378.916 298.468 378.816 298.468 378.72 298.468C378.624 298.46 378.54 298.456 378.468 298.456C377.828 298.456 377.376 298.544 377.112 298.72C376.856 298.896 376.728 299.124 376.728 299.404ZM383.82 299.116C383.54 299.116 383.272 299.072 383.016 298.984C382.944 299.048 382.884 299.108 382.836 299.164C382.788 299.212 382.764 299.28 382.764 299.368C382.764 299.512 382.908 299.62 383.196 299.692C383.484 299.764 383.976 299.8 384.672 299.8C385.152 299.8 385.528 299.868 385.8 300.004C386.072 300.14 386.268 300.324 386.388 300.556C386.508 300.78 386.568 301.024 386.568 301.288C386.568 301.6 386.472 301.896 386.28 302.176C386.096 302.464 385.808 302.696 385.416 302.872C385.032 303.056 384.536 303.148 383.928 303.148C383.136 303.148 382.516 303.012 382.068 302.74C381.62 302.476 381.396 302.12 381.396 301.672C381.396 301.432 381.472 301.208 381.624 301C381.784 300.8 381.98 300.64 382.212 300.52C382.06 300.424 381.94 300.312 381.852 300.184C381.772 300.048 381.732 299.892 381.732 299.716C381.732 299.484 381.796 299.28 381.924 299.104C382.052 298.928 382.208 298.764 382.392 298.612C382.192 298.444 382.032 298.24 381.912 298C381.8 297.752 381.744 297.484 381.744 297.196C381.744 296.836 381.832 296.512 382.008 296.224C382.192 295.928 382.44 295.692 382.752 295.516C383.064 295.34 383.42 295.252 383.82 295.252C384.076 295.252 384.32 295.292 384.552 295.372C384.784 295.452 384.988 295.564 385.164 295.708C385.38 295.556 385.62 295.44 385.884 295.36C386.148 295.28 386.432 295.252 386.736 295.276L386.868 296.212C386.66 296.172 386.452 296.164 386.244 296.188C386.044 296.212 385.86 296.268 385.692 296.356C385.82 296.62 385.884 296.9 385.884 297.196C385.884 297.564 385.792 297.892 385.608 298.18C385.432 298.468 385.188 298.696 384.876 298.864C384.564 299.032 384.212 299.116 383.82 299.116ZM383.808 298.132C384.08 298.132 384.304 298.044 384.48 297.868C384.656 297.692 384.744 297.468 384.744 297.196C384.744 296.932 384.652 296.716 384.468 296.548C384.292 296.372 384.072 296.284 383.808 296.284C383.568 296.284 383.352 296.372 383.16 296.548C382.976 296.724 382.884 296.94 382.884 297.196C382.884 297.452 382.972 297.672 383.148 297.856C383.332 298.04 383.552 298.132 383.808 298.132ZM382.44 301.468C382.44 301.684 382.588 301.84 382.884 301.936C383.188 302.04 383.572 302.092 384.036 302.092C384.492 302.092 384.84 302.032 385.08 301.912C385.328 301.792 385.452 301.632 385.452 301.432C385.452 301.248 385.372 301.116 385.212 301.036C385.06 300.964 384.756 300.928 384.3 300.928C384.052 300.928 383.808 300.916 383.568 300.892C383.328 300.868 383.104 300.832 382.896 300.784C382.768 300.88 382.66 300.98 382.572 301.084C382.484 301.188 382.44 301.316 382.44 301.468ZM390.432 301.132C389.896 301.132 389.416 301.02 388.992 300.796C388.576 300.572 388.248 300.244 388.008 299.812C387.768 299.38 387.648 298.86 387.648 298.252C387.648 297.628 387.764 297.096 387.996 296.656C388.236 296.216 388.552 295.88 388.944 295.648C389.344 295.408 389.788 295.288 390.276 295.288C390.708 295.288 391.104 295.388 391.464 295.588C391.832 295.788 392.124 296.092 392.34 296.5C392.564 296.9 392.676 297.4 392.676 298C392.676 298.08 392.672 298.176 392.664 298.288C392.664 298.4 392.66 298.496 392.652 298.576H388.956C388.972 298.928 389.056 299.216 389.208 299.44C389.36 299.656 389.548 299.816 389.772 299.92C389.996 300.024 390.236 300.076 390.492 300.076C390.74 300.076 390.976 300.036 391.2 299.956C391.424 299.876 391.632 299.74 391.824 299.548L392.52 300.22C392.248 300.54 391.936 300.772 391.584 300.916C391.232 301.06 390.848 301.132 390.432 301.132ZM388.98 297.556H391.356C391.356 297.164 391.256 296.864 391.056 296.656C390.856 296.448 390.576 296.344 390.216 296.344C389.904 296.344 389.632 296.444 389.4 296.644C389.168 296.836 389.028 297.14 388.98 297.556Z" fill="#25CBD3"/>
<rect x="300.866" y="399.131" width="143.685" height="10.7764" rx="5.38819" fill="#5E49FF"/>
<rect x="300.866" y="424.276" width="143.685" height="10.7764" rx="5.38819" fill="#5E49FF"/>
<rect x="300.866" y="449.42" width="71.8426" height="10.7764" rx="5.38819" fill="#5E49FF"/>
<rect x="300.866" y="488.934" width="143.685" height="14.3685" rx="7.18426" fill="#F0F5FF"/>
<rect x="396.955" y="488.934" width="47.8951" height="14.3685" rx="7.18426" fill="#25CBD3"/>
<path d="M307.072 376.288C305.152 376.288 303.712 375.616 302.752 374.272C301.808 372.912 301.336 370.984 301.336 368.488C301.336 366.024 301.808 364.12 302.752 362.776C303.712 361.432 305.152 360.76 307.072 360.76C308.96 360.76 310.384 361.432 311.344 362.776C312.32 364.12 312.808 366.024 312.808 368.488C312.808 370.984 312.32 372.912 311.344 374.272C310.384 375.632 308.96 376.304 307.072 376.288ZM307.072 373.6C307.808 373.6 308.392 373.192 308.824 372.376C309.256 371.544 309.472 370.232 309.472 368.44C309.472 366.776 309.256 365.528 308.824 364.696C308.392 363.864 307.808 363.448 307.072 363.448C305.472 363.448 304.672 365.112 304.672 368.44C304.672 370.232 304.872 371.544 305.272 372.376C305.688 373.192 306.288 373.6 307.072 373.6ZM314.488 376V373.36H317.56V362.44H314.632V359.8H320.968V373.36H324.016V376H314.488ZM330.016 376.288C328.8 376.288 327.848 376 327.16 375.424C326.472 374.832 326.128 374.056 326.128 373.096C326.128 372.296 326.36 371.568 326.824 370.912C327.288 370.256 328.008 369.736 328.984 369.352C329.976 368.968 331.264 368.776 332.848 368.776H332.92C332.808 368.072 332.592 367.608 332.272 367.384C331.968 367.144 331.576 367.024 331.096 367.024C330.6 367.024 330.144 367.096 329.728 367.24C329.312 367.368 328.872 367.672 328.408 368.152L326.488 366.184C327.208 365.528 327.976 365.072 328.792 364.816C329.624 364.56 330.432 364.432 331.216 364.432C332.128 364.432 332.976 364.568 333.76 364.84C334.56 365.112 335.2 365.592 335.68 366.28C336.16 366.968 336.4 367.936 336.4 369.184V376H332.968V375.112C332.552 375.512 332.128 375.808 331.696 376C331.28 376.192 330.72 376.288 330.016 376.288ZM329.512 372.592C329.512 372.992 329.632 373.272 329.872 373.432C330.128 373.592 330.432 373.672 330.784 373.672C331.424 373.672 331.92 373.472 332.272 373.072C332.64 372.672 332.864 372 332.944 371.056C332.832 371.056 332.744 371.056 332.68 371.056C331.768 371.056 331.088 371.136 330.64 371.296C330.192 371.44 329.888 371.632 329.728 371.872C329.584 372.112 329.512 372.352 329.512 372.592ZM330.688 363.952L329.224 363.04L331.192 358.792L333.496 360.424L330.688 363.952ZM343.072 380.128L341.152 378.568C341.6 378.152 341.92 377.76 342.112 377.392C342.32 377.04 342.424 376.736 342.424 376.48C342.424 376.224 342.336 375.992 342.16 375.784C342 375.56 341.832 375.304 341.656 375.016C341.48 374.728 341.392 374.368 341.392 373.936C341.392 373.328 341.608 372.872 342.04 372.568C342.488 372.264 342.984 372.112 343.528 372.112C344.28 372.112 344.848 372.36 345.232 372.856C345.632 373.352 345.832 374 345.832 374.8C345.832 375.632 345.608 376.48 345.16 377.344C344.712 378.224 344.016 379.152 343.072 380.128ZM362.8 376V364.696H365.536V365.344C365.808 364.976 366.096 364.736 366.4 364.624C366.704 364.496 367 364.432 367.288 364.432C367.64 364.432 367.984 364.504 368.32 364.648C368.656 364.792 368.936 365.12 369.16 365.632C369.432 365.184 369.744 364.872 370.096 364.696C370.448 364.52 370.896 364.432 371.44 364.432C372.288 364.432 372.896 364.728 373.264 365.32C373.632 365.912 373.816 366.768 373.816 367.888V376H370.96V368.44C370.96 367.88 370.928 367.48 370.864 367.24C370.816 366.984 370.704 366.856 370.528 366.856C370.304 366.856 370.096 367.008 369.904 367.312C369.712 367.616 369.616 368.144 369.616 368.896V376H367V368.464C367 367.776 366.96 367.32 366.88 367.096C366.8 366.872 366.672 366.76 366.496 366.76C365.936 366.76 365.656 367.416 365.656 368.728V376H362.8ZM379.384 376.288C378.216 376.288 377.256 375.92 376.504 375.184C375.752 374.448 375.376 373.24 375.376 371.56V364.696H378.784V371.56C378.784 372.296 378.896 372.824 379.12 373.144C379.36 373.448 379.656 373.6 380.008 373.6C381.224 373.6 381.832 372.824 381.832 371.272V364.696H385.264V374.176C385.264 374.56 385.272 374.896 385.288 375.184C385.32 375.456 385.392 375.728 385.504 376H382.456C382.344 375.776 382.272 375.56 382.24 375.352C382.224 375.128 382.216 374.912 382.216 374.704C381.896 375.248 381.472 375.648 380.944 375.904C380.432 376.16 379.912 376.288 379.384 376.288ZM387.712 376V364.696H391.144V365.992C391.528 365.528 391.936 365.152 392.368 364.864C392.816 364.576 393.368 364.432 394.024 364.432C394.696 364.432 395.328 364.6 395.92 364.936C396.512 365.256 396.992 365.768 397.36 366.472C397.728 367.16 397.912 368.072 397.912 369.208V376H394.504V369.232C394.504 367.68 394.04 366.904 393.112 366.904C392.6 366.904 392.144 367.104 391.744 367.504C391.344 367.888 391.144 368.424 391.144 369.112V376H387.712ZM404.2 376.288C403.336 376.288 402.544 376.072 401.824 375.64C401.12 375.192 400.56 374.528 400.144 373.648C399.728 372.752 399.52 371.648 399.52 370.336C399.52 368.432 399.944 366.976 400.792 365.968C401.64 364.944 402.768 364.432 404.176 364.432C404.608 364.432 405.04 364.488 405.472 364.6C405.92 364.712 406.272 364.968 406.528 365.368V359.8H410.152V360.064C410.072 360.16 410.016 360.264 409.984 360.376C409.952 360.488 409.944 360.68 409.96 360.952L409.912 374.656C409.912 374.88 409.928 375.104 409.96 375.328C409.992 375.552 410.064 375.776 410.176 376H406.864C406.752 375.776 406.688 375.632 406.672 375.568C406.656 375.488 406.648 375.336 406.648 375.112C406.36 375.56 406 375.864 405.568 376.024C405.136 376.2 404.68 376.288 404.2 376.288ZM404.8 373.648C405.344 373.648 405.768 373.416 406.072 372.952C406.392 372.472 406.552 371.6 406.552 370.336C406.552 369.088 406.408 368.224 406.12 367.744C405.832 367.248 405.384 367 404.776 367C404.152 367 403.672 367.312 403.336 367.936C403 368.544 402.832 369.376 402.832 370.432C402.832 371.12 402.936 371.704 403.144 372.184C403.352 372.664 403.608 373.032 403.912 373.288C404.216 373.528 404.512 373.648 404.8 373.648ZM417.136 376.288C416.128 376.288 415.208 376.048 414.376 375.568C413.544 375.072 412.88 374.376 412.384 373.48C411.888 372.584 411.64 371.544 411.64 370.36C411.64 369.256 411.888 368.256 412.384 367.36C412.88 366.464 413.544 365.752 414.376 365.224C415.208 364.696 416.128 364.432 417.136 364.432C418.144 364.432 419.064 364.696 419.896 365.224C420.744 365.752 421.416 366.464 421.912 367.36C422.424 368.256 422.68 369.256 422.68 370.36C422.68 371.528 422.424 372.56 421.912 373.456C421.416 374.352 420.744 375.048 419.896 375.544C419.064 376.04 418.144 376.288 417.136 376.288ZM417.136 373.624C417.776 373.624 418.304 373.328 418.72 372.736C419.136 372.128 419.344 371.336 419.344 370.36C419.344 369.32 419.136 368.52 418.72 367.96C418.304 367.384 417.776 367.096 417.136 367.096C416.544 367.096 416.032 367.384 415.6 367.96C415.184 368.52 414.976 369.32 414.976 370.36C414.976 371.336 415.176 372.128 415.576 372.736C415.992 373.328 416.512 373.624 417.136 373.624ZM427.96 370.768L427.264 362.2C427.2 361.368 427.368 360.776 427.768 360.424C428.184 360.072 428.656 359.896 429.184 359.896C429.696 359.896 430.16 360.072 430.576 360.424C431.008 360.76 431.184 361.352 431.104 362.2L430.36 370.768H427.96ZM429.136 376.24C428.528 376.24 428 376.04 427.552 375.64C427.12 375.24 426.904 374.752 426.904 374.176C426.904 373.616 427.12 373.128 427.552 372.712C428 372.28 428.528 372.064 429.136 372.064C429.792 372.064 430.336 372.288 430.768 372.736C431.2 373.168 431.416 373.648 431.416 374.176C431.416 374.72 431.184 375.2 430.72 375.616C430.272 376.032 429.744 376.24 429.136 376.24Z" fill="#25CBD3"/>
<rect x="505.617" y="356.025" width="147.277" height="147.277" rx="24" fill="url(#paint0_linear)"/>
<path d="M600 439.333V420.667C599.999 419.848 599.783 419.045 599.374 418.336C598.964 417.628 598.375 417.039 597.667 416.63L581.333 407.297C580.624 406.887 579.819 406.672 579 406.672C578.181 406.672 577.376 406.887 576.667 407.297L560.333 416.63C559.625 417.039 559.036 417.628 558.626 418.336C558.217 419.045 558.001 419.848 558 420.667V439.333C558.001 440.152 558.217 440.956 558.626 441.664C559.036 442.373 559.625 442.961 560.333 443.37L576.667 452.703C577.376 453.113 578.181 453.329 579 453.329C579.819 453.329 580.624 453.113 581.333 452.703L597.667 443.37C598.375 442.961 598.964 442.373 599.374 441.664C599.783 440.956 599.999 440.152 600 439.333Z" stroke="#A191FF" stroke-width="3" stroke-linecap="round" stroke-linejoin="round"/>
<path d="M568.5 411.823L579 417.89L589.5 411.823" stroke="#A191FF" stroke-width="3" stroke-linecap="round" stroke-linejoin="round"/>
<path d="M568.5 448.177V436.067L558 430" stroke="#A191FF" stroke-width="3" stroke-linecap="round" stroke-linejoin="round"/>
<path d="M600 430L589.5 436.067V448.177" stroke="#A191FF" stroke-width="3" stroke-linecap="round" stroke-linejoin="round"/>
<path d="M558.63 418.24L579 430.023L599.37 418.24" stroke="#A191FF" stroke-width="3" stroke-linecap="round" stroke-linejoin="round"/>
<path d="M579 453.52V430" stroke="#A191FF" stroke-width="3" stroke-linecap="round" stroke-linejoin="round"/>
<rect x="-2.98023e-08" y="0.5" width="58.8747" height="58.8747" rx="15.5" transform="matrix(0.866025 0.5 -0.866025 0.5 425.286 0.25)" fill="#3BD42D" fill-opacity="0.96" stroke="#3BD42D"/>
<rect width="59.8747" height="59.8747" rx="16" transform="matrix(0.866025 0.5 -0.866025 0.5 425.147 9.97913)" fill="url(#paint1_linear)"/>
<g clip-path="url(#clip0)" filter="url(#filter0_f)">
<path d="M423.765 36.3129L435.288 36.3129L435.288 29.6602" stroke="#108119" stroke-width="3" stroke-linecap="round" stroke-linejoin="round"/>
<path d="M427.605 25.2251L416.083 25.2251L416.083 31.8778" stroke="#108119" stroke-width="3" stroke-linecap="round" stroke-linejoin="round"/>
</g>
<g clip-path="url(#clip1)">
<path d="M423.765 32.1549L435.288 32.1549L435.288 25.5022" stroke="#F0F5FF" stroke-width="3" stroke-linecap="round" stroke-linejoin="round"/>
<path d="M427.605 21.0671L416.083 21.0671L416.083 27.7198" stroke="#F0F5FF" stroke-width="3" stroke-linecap="round" stroke-linejoin="round"/>
</g>
<defs>
<filter id="filter0_f" x="400.639" y="15.4635" width="50.0916" height="30.611" filterUnits="userSpaceOnUse" color-interpolation-filters="sRGB">
<feFlood flood-opacity="0" result="BackgroundImageFix"/>
<feBlend mode="normal" in="SourceGraphic" in2="BackgroundImageFix" result="shape"/>
<feGaussianBlur stdDeviation="1" result="effect1_foregroundBlur"/>
</filter>
<linearGradient id="paint0_linear" x1="579.256" y1="356.025" x2="579.256" y2="503.302" gradientUnits="userSpaceOnUse">
<stop stop-color="#5E49FF"/>
<stop offset="1" stop-color="#5E49FF" stop-opacity="0"/>
</linearGradient>
<linearGradient id="paint1_linear" x1="-7.92184" y1="67.7965" x2="33.5606" y2="-15.1683" gradientUnits="userSpaceOnUse">
<stop stop-color="#3BD42D"/>
<stop offset="1" stop-color="#3BD42D" stop-opacity="0"/>
</linearGradient>
<clipPath id="clip0">
<rect width="26.611" height="26.611" fill="white" transform="matrix(0.866025 0.5 -0.866025 0.5 425.685 17.4635)"/>
</clipPath>
<clipPath id="clip1">
<rect width="26.611" height="26.611" fill="white" transform="matrix(0.866025 0.5 -0.866025 0.5 425.685 13.3055)"/>
</clipPath>
</defs>
</svg>
